<mxfile host="app.diagrams.net" modified="2021-03-16T08:13:29.656Z" agent="5.0 (X11; Linux x86_64) AppleWebKit/537.36 (KHTML, like Gecko) Chrome/89.0.4389.90 Safari/537.36" etag="c0kxFTh_X4PZc_psWrde" version="14.2.7" type="github">
  <diagram id="kgpKYQtTHZ0yAKxKKP6v" name="Page-1">
    <mxGraphModel dx="1360" dy="806" grid="1" gridSize="10" guides="1" tooltips="1" connect="1" arrows="1" fold="1" page="1" pageScale="1" pageWidth="850" pageHeight="1100" math="0" shadow="0">
      <root>
        <mxCell id="0" />
        <mxCell id="1" parent="0" />
        <mxCell id="QIC3voDbuaW13xfOM7HV-47" style="edgeStyle=orthogonalEdgeStyle;rounded=0;orthogonalLoop=1;jettySize=auto;html=1;endArrow=classic;endFill=1;entryX=1.069;entryY=0.652;entryDx=0;entryDy=0;entryPerimeter=0;" edge="1" parent="1">
          <mxGeometry relative="1" as="geometry">
            <mxPoint x="455" y="271" as="sourcePoint" />
            <mxPoint x="455.18999999999994" y="300.9600000000001" as="targetPoint" />
            <Array as="points">
              <mxPoint x="455" y="271" />
              <mxPoint x="489" y="271" />
              <mxPoint x="489" y="301" />
            </Array>
          </mxGeometry>
        </mxCell>
        <mxCell id="QIC3voDbuaW13xfOM7HV-48" style="edgeStyle=orthogonalEdgeStyle;rounded=0;orthogonalLoop=1;jettySize=auto;html=1;exitX=0.906;exitY=0.835;exitDx=0;exitDy=0;exitPerimeter=0;" edge="1" parent="1">
          <mxGeometry relative="1" as="geometry">
            <mxPoint x="214.49999999999994" y="707" as="sourcePoint" />
            <mxPoint x="215.44" y="740.79" as="targetPoint" />
            <Array as="points">
              <mxPoint x="214.94" y="710.79" />
              <mxPoint x="240.94" y="710.79" />
              <mxPoint x="240.94" y="740.79" />
            </Array>
          </mxGeometry>
        </mxCell>
        <mxCell id="QIC3voDbuaW13xfOM7HV-49" style="edgeStyle=orthogonalEdgeStyle;rounded=0;orthogonalLoop=1;jettySize=auto;html=1;endArrow=classic;endFill=1;entryX=1.069;entryY=0.652;entryDx=0;entryDy=0;entryPerimeter=0;" edge="1" parent="1" target="QIC3voDbuaW13xfOM7HV-61">
          <mxGeometry relative="1" as="geometry">
            <mxPoint x="455.01" y="230.96000000000004" as="sourcePoint" />
            <mxPoint x="460.99" y="250.88699999999994" as="targetPoint" />
            <Array as="points">
              <mxPoint x="455" y="220" />
              <mxPoint x="489" y="220" />
              <mxPoint x="489" y="250" />
            </Array>
          </mxGeometry>
        </mxCell>
        <mxCell id="QIC3voDbuaW13xfOM7HV-50" style="edgeStyle=orthogonalEdgeStyle;rounded=0;orthogonalLoop=1;jettySize=auto;html=1;endArrow=classic;endFill=1;" edge="1" parent="1">
          <mxGeometry relative="1" as="geometry">
            <mxPoint x="455" y="180.96000000000004" as="sourcePoint" />
            <mxPoint x="456" y="200" as="targetPoint" />
            <Array as="points">
              <mxPoint x="455" y="170" />
              <mxPoint x="489" y="170" />
              <mxPoint x="489" y="200" />
            </Array>
          </mxGeometry>
        </mxCell>
        <mxCell id="QIC3voDbuaW13xfOM7HV-51" style="edgeStyle=orthogonalEdgeStyle;rounded=0;orthogonalLoop=1;jettySize=auto;html=1;endArrow=classic;endFill=1;" edge="1" parent="1" target="QIC3voDbuaW13xfOM7HV-61">
          <mxGeometry relative="1" as="geometry">
            <mxPoint x="455" y="130.99" as="sourcePoint" />
            <mxPoint x="461.18000000000006" y="150.5200000000001" as="targetPoint" />
            <Array as="points">
              <mxPoint x="455" y="120" />
              <mxPoint x="489" y="120" />
              <mxPoint x="489" y="150" />
            </Array>
          </mxGeometry>
        </mxCell>
        <mxCell id="QIC3voDbuaW13xfOM7HV-52" style="edgeStyle=orthogonalEdgeStyle;rounded=0;orthogonalLoop=1;jettySize=auto;html=1;entryX=0.993;entryY=1.001;entryDx=0;entryDy=0;entryPerimeter=0;endArrow=classic;endFill=1;" edge="1" parent="1" source="QIC3voDbuaW13xfOM7HV-74" target="QIC3voDbuaW13xfOM7HV-74">
          <mxGeometry relative="1" as="geometry">
            <Array as="points">
              <mxPoint x="215.5" y="498" />
              <mxPoint x="240.5" y="498" />
              <mxPoint x="240.5" y="538" />
            </Array>
          </mxGeometry>
        </mxCell>
        <mxCell id="QIC3voDbuaW13xfOM7HV-53" value="&lt;span style=&quot;font-size: 11px ; background-color: rgb(255 , 255 , 255)&quot;&gt;1: claim_supervisor&lt;br&gt;&amp;nbsp;opens claim tab&lt;/span&gt;" style="text;html=1;align=center;verticalAlign=middle;resizable=0;points=[];autosize=1;" vertex="1" parent="1">
          <mxGeometry x="84.5" y="367" width="110" height="30" as="geometry" />
        </mxCell>
        <mxCell id="QIC3voDbuaW13xfOM7HV-54" value="healthcare-web" style="rounded=0;whiteSpace=wrap;html=1;fillColor=#d5e8d4;strokeColor=#82b366;" vertex="1" parent="1">
          <mxGeometry x="150" y="20" width="120" height="50" as="geometry" />
        </mxCell>
        <mxCell id="QIC3voDbuaW13xfOM7HV-55" value="claim-service" style="rounded=0;whiteSpace=wrap;html=1;fillColor=#d5e8d4;strokeColor=#82b366;" vertex="1" parent="1">
          <mxGeometry x="390" y="20" width="120" height="50" as="geometry" />
        </mxCell>
        <mxCell id="QIC3voDbuaW13xfOM7HV-56" style="edgeStyle=orthogonalEdgeStyle;rounded=0;orthogonalLoop=1;jettySize=auto;html=1;endArrow=none;endFill=0;dashed=1;" edge="1" parent="1" source="QIC3voDbuaW13xfOM7HV-58">
          <mxGeometry relative="1" as="geometry">
            <mxPoint x="210" y="800" as="targetPoint" />
            <mxPoint x="210" y="70" as="sourcePoint" />
          </mxGeometry>
        </mxCell>
        <mxCell id="QIC3voDbuaW13xfOM7HV-57" style="edgeStyle=orthogonalEdgeStyle;rounded=0;orthogonalLoop=1;jettySize=auto;html=1;endArrow=classic;endFill=1;" edge="1" parent="1" source="QIC3voDbuaW13xfOM7HV-58" target="QIC3voDbuaW13xfOM7HV-61">
          <mxGeometry relative="1" as="geometry">
            <mxPoint x="440" y="140" as="targetPoint" />
            <Array as="points">
              <mxPoint x="330" y="100" />
              <mxPoint x="330" y="100" />
            </Array>
          </mxGeometry>
        </mxCell>
        <mxCell id="QIC3voDbuaW13xfOM7HV-58" value="" style="html=1;points=[];perimeter=orthogonalPerimeter;fillColor=#dae8fc;strokeColor=#6c8ebf;" vertex="1" parent="1">
          <mxGeometry x="205" y="100" width="10" height="230" as="geometry" />
        </mxCell>
        <mxCell id="QIC3voDbuaW13xfOM7HV-59" style="edgeStyle=orthogonalEdgeStyle;rounded=0;orthogonalLoop=1;jettySize=auto;html=1;endArrow=none;endFill=0;dashed=1;" edge="1" parent="1" source="QIC3voDbuaW13xfOM7HV-54" target="QIC3voDbuaW13xfOM7HV-58">
          <mxGeometry relative="1" as="geometry">
            <mxPoint x="210" y="860" as="targetPoint" />
            <mxPoint x="210" y="70" as="sourcePoint" />
          </mxGeometry>
        </mxCell>
        <mxCell id="QIC3voDbuaW13xfOM7HV-60" style="edgeStyle=orthogonalEdgeStyle;rounded=0;orthogonalLoop=1;jettySize=auto;html=1;endArrow=classic;endFill=1;dashed=1;" edge="1" parent="1">
          <mxGeometry relative="1" as="geometry">
            <mxPoint x="443.44000000000005" y="329.43" as="sourcePoint" />
            <mxPoint x="214.5" y="329.67" as="targetPoint" />
            <Array as="points">
              <mxPoint x="214.5" y="329.67" />
            </Array>
          </mxGeometry>
        </mxCell>
        <mxCell id="QIC3voDbuaW13xfOM7HV-61" value="" style="html=1;points=[];perimeter=orthogonalPerimeter;fillColor=#dae8fc;strokeColor=#6c8ebf;" vertex="1" parent="1">
          <mxGeometry x="445" y="100" width="10" height="230" as="geometry" />
        </mxCell>
        <mxCell id="QIC3voDbuaW13xfOM7HV-62" style="edgeStyle=orthogonalEdgeStyle;rounded=0;orthogonalLoop=1;jettySize=auto;html=1;dashed=1;endArrow=none;endFill=0;" edge="1" parent="1" source="QIC3voDbuaW13xfOM7HV-55" target="QIC3voDbuaW13xfOM7HV-61">
          <mxGeometry relative="1" as="geometry">
            <mxPoint x="450" y="860" as="targetPoint" />
            <mxPoint x="450" y="70" as="sourcePoint" />
          </mxGeometry>
        </mxCell>
        <mxCell id="QIC3voDbuaW13xfOM7HV-63" value="2: click on button &quot;Send to process&quot;" style="text;html=1;align=center;verticalAlign=middle;resizable=0;points=[];autosize=1;" vertex="1" parent="1">
          <mxGeometry x="225" y="80" width="200" height="20" as="geometry" />
        </mxCell>
        <mxCell id="QIC3voDbuaW13xfOM7HV-64" value="1: claim_staff opens claim" style="html=1;verticalAlign=bottom;startArrow=circle;startFill=1;endArrow=open;startSize=6;endSize=8;" edge="1" parent="1">
          <mxGeometry width="80" relative="1" as="geometry">
            <mxPoint x="60" y="100" as="sourcePoint" />
            <mxPoint x="205" y="100" as="targetPoint" />
          </mxGeometry>
        </mxCell>
        <mxCell id="QIC3voDbuaW13xfOM7HV-65" value="7: return claim status" style="text;html=1;align=center;verticalAlign=middle;resizable=0;points=[];autosize=1;" vertex="1" parent="1">
          <mxGeometry x="263.5" y="309.67" width="130" height="20" as="geometry" />
        </mxCell>
        <mxCell id="QIC3voDbuaW13xfOM7HV-66" style="edgeStyle=orthogonalEdgeStyle;rounded=0;orthogonalLoop=1;jettySize=auto;html=1;entryX=1;entryY=-0.001;entryDx=0;entryDy=0;entryPerimeter=0;endArrow=classic;endFill=1;" edge="1" parent="1" target="QIC3voDbuaW13xfOM7HV-74">
          <mxGeometry relative="1" as="geometry">
            <Array as="points">
              <mxPoint x="210.5" y="448" />
              <mxPoint x="235.5" y="448" />
              <mxPoint x="235.5" y="474" />
            </Array>
            <mxPoint x="210.5" y="440.9999999999999" as="sourcePoint" />
          </mxGeometry>
        </mxCell>
        <mxCell id="QIC3voDbuaW13xfOM7HV-67" style="edgeStyle=orthogonalEdgeStyle;rounded=0;orthogonalLoop=1;jettySize=auto;html=1;entryX=-0.021;entryY=0.031;entryDx=0;entryDy=0;entryPerimeter=0;" edge="1" parent="1">
          <mxGeometry relative="1" as="geometry">
            <mxPoint x="445.28999999999996" y="386.302" as="targetPoint" />
            <mxPoint x="214.5" y="386.31999999999994" as="sourcePoint" />
            <Array as="points">
              <mxPoint x="330" y="386" />
            </Array>
          </mxGeometry>
        </mxCell>
        <mxCell id="QIC3voDbuaW13xfOM7HV-68" value="" style="html=1;points=[];perimeter=orthogonalPerimeter;fillColor=#dae8fc;strokeColor=#6c8ebf;" vertex="1" parent="1">
          <mxGeometry x="204.5" y="385" width="10" height="382" as="geometry" />
        </mxCell>
        <mxCell id="QIC3voDbuaW13xfOM7HV-69" value="" style="html=1;verticalAlign=bottom;startArrow=circle;startFill=1;endArrow=open;startSize=6;endSize=8;" edge="1" parent="1">
          <mxGeometry x="-0.1111" y="-100" width="80" relative="1" as="geometry">
            <mxPoint x="69.5" y="384.43" as="sourcePoint" />
            <mxPoint x="204.5" y="384.43" as="targetPoint" />
            <mxPoint as="offset" />
          </mxGeometry>
        </mxCell>
        <mxCell id="QIC3voDbuaW13xfOM7HV-70" value="9: return check limit &lt;br&gt;validation status&amp;nbsp;" style="text;html=1;align=center;verticalAlign=middle;resizable=0;points=[];autosize=1;" vertex="1" parent="1">
          <mxGeometry x="269.5" y="665" width="120" height="30" as="geometry" />
        </mxCell>
        <mxCell id="QIC3voDbuaW13xfOM7HV-71" value="4: create claim_check_limit&amp;nbsp;&lt;br&gt;for each treatment" style="text;html=1;align=center;verticalAlign=middle;resizable=0;points=[];autosize=1;" vertex="1" parent="1">
          <mxGeometry x="485" y="170" width="160" height="30" as="geometry" />
        </mxCell>
        <mxCell id="QIC3voDbuaW13xfOM7HV-72" value="3: calculate total claim history" style="text;html=1;align=center;verticalAlign=middle;resizable=0;points=[];autosize=1;" vertex="1" parent="1">
          <mxGeometry x="486" y="123" width="170" height="20" as="geometry" />
        </mxCell>
        <mxCell id="QIC3voDbuaW13xfOM7HV-73" value="4: input approved_amount &lt;br&gt;on claim tab" style="text;html=1;align=center;verticalAlign=middle;resizable=0;points=[];autosize=1;" vertex="1" parent="1">
          <mxGeometry x="235.5" y="449" width="150" height="30" as="geometry" />
        </mxCell>
        <mxCell id="QIC3voDbuaW13xfOM7HV-74" value="" style="html=1;points=[];perimeter=orthogonalPerimeter;fillColor=#dae8fc;strokeColor=#6c8ebf;" vertex="1" parent="1">
          <mxGeometry x="210.5" y="474.01" width="10" height="53.99" as="geometry" />
        </mxCell>
        <mxCell id="QIC3voDbuaW13xfOM7HV-75" value="5: check limit" style="text;html=1;align=center;verticalAlign=middle;resizable=0;points=[];autosize=1;" vertex="1" parent="1">
          <mxGeometry x="238.5" y="504" width="80" height="20" as="geometry" />
        </mxCell>
        <mxCell id="QIC3voDbuaW13xfOM7HV-76" style="edgeStyle=orthogonalEdgeStyle;rounded=0;orthogonalLoop=1;jettySize=auto;html=1;endArrow=classic;endFill=1;dashed=1;" edge="1" parent="1" source="QIC3voDbuaW13xfOM7HV-91">
          <mxGeometry relative="1" as="geometry">
            <mxPoint x="215.5" y="681" as="targetPoint" />
            <Array as="points">
              <mxPoint x="215.5" y="681" />
            </Array>
          </mxGeometry>
        </mxCell>
        <mxCell id="QIC3voDbuaW13xfOM7HV-77" style="edgeStyle=orthogonalEdgeStyle;rounded=0;orthogonalLoop=1;jettySize=auto;html=1;dashed=1;endArrow=none;endFill=0;" edge="1" parent="1" source="QIC3voDbuaW13xfOM7HV-87">
          <mxGeometry relative="1" as="geometry">
            <mxPoint x="451" y="800" as="targetPoint" />
            <mxPoint x="450" y="310.0000000000001" as="sourcePoint" />
          </mxGeometry>
        </mxCell>
        <mxCell id="QIC3voDbuaW13xfOM7HV-78" value="" style="endArrow=classic;html=1;entryX=0.074;entryY=-0.001;entryDx=0;entryDy=0;entryPerimeter=0;" edge="1" parent="1" source="QIC3voDbuaW13xfOM7HV-68" target="QIC3voDbuaW13xfOM7HV-91">
          <mxGeometry width="50" height="50" relative="1" as="geometry">
            <mxPoint x="216.5" y="558" as="sourcePoint" />
            <mxPoint x="380.5" y="558" as="targetPoint" />
          </mxGeometry>
        </mxCell>
        <mxCell id="QIC3voDbuaW13xfOM7HV-79" value="6: save claim checked limitation" style="text;html=1;align=center;verticalAlign=middle;resizable=0;points=[];autosize=1;" vertex="1" parent="1">
          <mxGeometry x="239.5" y="538" width="180" height="20" as="geometry" />
        </mxCell>
        <mxCell id="QIC3voDbuaW13xfOM7HV-80" value="7: validate claim &lt;br&gt;check limit" style="text;html=1;align=center;verticalAlign=middle;resizable=0;points=[];autosize=1;" vertex="1" parent="1">
          <mxGeometry x="486.5" y="574" width="100" height="30" as="geometry" />
        </mxCell>
        <mxCell id="QIC3voDbuaW13xfOM7HV-81" value="8: update claim_check_limit data" style="text;html=1;align=center;verticalAlign=middle;resizable=0;points=[];autosize=1;" vertex="1" parent="1">
          <mxGeometry x="484" y="633" width="190" height="20" as="geometry" />
        </mxCell>
        <mxCell id="QIC3voDbuaW13xfOM7HV-82" style="edgeStyle=orthogonalEdgeStyle;rounded=0;orthogonalLoop=1;jettySize=auto;html=1;endArrow=classic;endFill=1;exitX=0.935;exitY=0.067;exitDx=0;exitDy=0;exitPerimeter=0;" edge="1" parent="1">
          <mxGeometry relative="1" as="geometry">
            <mxPoint x="455.4999999999999" y="629.2510000000001" as="sourcePoint" />
            <mxPoint x="456.15" y="660.99" as="targetPoint" />
            <Array as="points">
              <mxPoint x="489" y="629" />
              <mxPoint x="489" y="661" />
            </Array>
          </mxGeometry>
        </mxCell>
        <mxCell id="QIC3voDbuaW13xfOM7HV-83" style="edgeStyle=orthogonalEdgeStyle;rounded=0;orthogonalLoop=1;jettySize=auto;html=1;endArrow=classic;endFill=1;exitX=0.935;exitY=0.067;exitDx=0;exitDy=0;exitPerimeter=0;" edge="1" parent="1">
          <mxGeometry relative="1" as="geometry">
            <mxPoint x="455.5" y="572.0010000000001" as="sourcePoint" />
            <mxPoint x="456.1500000000001" y="603.74" as="targetPoint" />
            <Array as="points">
              <mxPoint x="489" y="572" />
              <mxPoint x="489" y="604" />
            </Array>
          </mxGeometry>
        </mxCell>
        <mxCell id="QIC3voDbuaW13xfOM7HV-84" value="10: show button&lt;br&gt;&amp;nbsp;&quot;Send to approve&quot;" style="text;html=1;align=center;verticalAlign=middle;resizable=0;points=[];autosize=1;" vertex="1" parent="1">
          <mxGeometry x="231.5" y="710.79" width="120" height="30" as="geometry" />
        </mxCell>
        <mxCell id="QIC3voDbuaW13xfOM7HV-85" value="5: update claim status" style="text;html=1;align=center;verticalAlign=middle;resizable=0;points=[];autosize=1;" vertex="1" parent="1">
          <mxGeometry x="486.5" y="225" width="130" height="20" as="geometry" />
        </mxCell>
        <mxCell id="QIC3voDbuaW13xfOM7HV-86" style="edgeStyle=orthogonalEdgeStyle;rounded=0;orthogonalLoop=1;jettySize=auto;html=1;entryX=1.045;entryY=0.111;entryDx=0;entryDy=0;entryPerimeter=0;dashed=1;" edge="1" parent="1" source="QIC3voDbuaW13xfOM7HV-87" target="QIC3voDbuaW13xfOM7HV-68">
          <mxGeometry relative="1" as="geometry">
            <Array as="points">
              <mxPoint x="330" y="427" />
            </Array>
          </mxGeometry>
        </mxCell>
        <mxCell id="QIC3voDbuaW13xfOM7HV-87" value="" style="html=1;points=[];perimeter=orthogonalPerimeter;fillColor=#dae8fc;strokeColor=#6c8ebf;" vertex="1" parent="1">
          <mxGeometry x="445.5" y="386" width="10" height="42" as="geometry" />
        </mxCell>
        <mxCell id="QIC3voDbuaW13xfOM7HV-88" style="edgeStyle=orthogonalEdgeStyle;rounded=0;orthogonalLoop=1;jettySize=auto;html=1;dashed=1;endArrow=none;endFill=0;" edge="1" parent="1" source="QIC3voDbuaW13xfOM7HV-61" target="QIC3voDbuaW13xfOM7HV-87">
          <mxGeometry relative="1" as="geometry">
            <mxPoint x="450.5000000000002" y="531" as="targetPoint" />
            <mxPoint x="450" y="290" as="sourcePoint" />
          </mxGeometry>
        </mxCell>
        <mxCell id="QIC3voDbuaW13xfOM7HV-89" value="2: get claim check limit list" style="text;html=1;align=center;verticalAlign=middle;resizable=0;points=[];autosize=1;" vertex="1" parent="1">
          <mxGeometry x="255" y="366" width="150" height="20" as="geometry" />
        </mxCell>
        <mxCell id="QIC3voDbuaW13xfOM7HV-90" value="3: return check limit list" style="text;html=1;align=center;verticalAlign=middle;resizable=0;points=[];autosize=1;" vertex="1" parent="1">
          <mxGeometry x="259" y="408" width="140" height="20" as="geometry" />
        </mxCell>
        <mxCell id="QIC3voDbuaW13xfOM7HV-91" value="" style="html=1;points=[];perimeter=orthogonalPerimeter;fillColor=#dae8fc;strokeColor=#6c8ebf;" vertex="1" parent="1">
          <mxGeometry x="445.5" y="558" width="10" height="209" as="geometry" />
        </mxCell>
        <mxCell id="QIC3voDbuaW13xfOM7HV-92" value="6: create claim_history data" style="text;html=1;align=center;verticalAlign=middle;resizable=0;points=[];autosize=1;" vertex="1" parent="1">
          <mxGeometry x="486.5" y="274" width="160" height="20" as="geometry" />
        </mxCell>
      </root>
    </mxGraphModel>
  </diagram>
</mxfile>
